<svg width="286" height="286" viewBox="0 0 286 286" fill="none" xmlns="http://www.w3.org/2000/svg">
  <path
    d="M132.816 143.102H152.452V162.737H172.088V182.373L153.306 183.227L152.452 202.009H133.67L132.816 197.74V183.227H123.425L113.181 182.373V162.737H132.816V143.102Z"
    fill="#E4F4FC" />
  <path
    d="M130.621 0H159.648L174.161 2.56119L192.09 7.68358L211.725 16.2209L221.116 22.197L231.361 29.8806L237.337 35.8567L244.167 41.8328L255.266 52.9313L264.657 65.7373L272.34 79.397L279.17 96.4716L283.439 112.693L286 131.475V157.087L282.585 177.576L276.609 195.504L269.779 210.872L262.949 222.824L255.266 233.069L251.851 237.337L252.704 241.606L256.119 249.29V256.973L252.704 266.364L247.582 273.194L241.606 277.463L235.63 279.17H224.531L214.287 274.901L208.31 268.072L204.896 260.388V247.582L210.018 237.337L216.848 231.361L223.678 228.8H237.337L245.875 232.215L253.558 222.824L262.096 210.018L269.779 193.797L274.048 181.845L277.463 162.209L278.316 154.525V131.475L275.755 113.546L270.633 96.4716L262.949 78.5433L254.412 64.8836L247.582 56.3463L238.191 46.1015L227.946 36.7104L215.994 28.1731L205.749 22.197L189.528 15.3672L174.161 11.0985L153.672 7.68358H135.743L117.815 9.39104L99.8866 13.6597L79.397 22.197L66.591 29.8806L54.6388 40.1254L47.809 46.1015L40.9791 52.9313L31.5881 64.8836L22.197 80.2507L19.6358 86.2269L14.5134 99.8866L10.2448 115.254L7.68358 131.475V151.11L10.2448 170.746L13.6597 184.406L18.7821 198.066L28.1731 215.994L36.7104 227.946L45.2478 238.191V239.898L48.6627 241.606L55.4925 248.436L66.591 256.119L77.6896 262.949L82.8119 264.657V266.364L90.4955 268.925L111.839 274.901L124.645 277.463L139.158 279.17L138.304 271.487V253.558L131.475 252.704L122.937 249.29L118.669 248.436V246.728L110.985 245.021L97.3254 237.337L88.7881 229.654L81.9582 223.678L72.5672 213.433L64.0299 202.334L54.6388 187.821L46.1015 171.6L39.2716 155.379L35.003 137.451L34.1493 132.328V112.693L35.8567 105.009L40.9791 96.4716L47.809 88.7881L58.0537 83.6657L62.3224 81.9582H76.8358L85.3731 83.6657L98.1791 90.4955L110.985 99.0328L116.107 101.594L123.791 104.155L129.767 110.131L132.328 115.254L131.475 121.23L127.206 125.499L121.23 126.352L114.4 123.791L110.131 120.376L106.716 114.4L105.009 106.716L97.3254 99.0328L85.3731 92.203L77.6896 89.6418H62.3224L55.4925 92.203L48.6627 98.1791L43.5403 105.863L41.8328 112.693V128.06L44.394 143.427L48.6627 157.087L54.6388 171.6L64.8836 189.528L75.1284 204.042L86.2269 216.848L95.6179 226.239L108.424 234.776L125.499 242.46L138.304 245.875H145.988L165.624 241.606L179.284 234.776L190.382 227.093L198.919 219.409L209.164 209.164L220.263 194.651L229.654 178.43L236.484 164.77L239.898 157.087L245.021 136.597L245.875 129.767V117.815L243.313 105.863L238.191 97.3254V95.6179L226.239 89.6418H210.872L199.773 93.0567L188.675 100.74L182.699 106.716L179.284 117.815L173.307 124.645L168.185 126.352L161.355 125.499L157.087 122.084L156.233 120.376V113.546L159.648 107.57L166.478 102.448L174.161 101.594L189.528 90.4955L204.042 83.6657L211.725 81.9582H223.678L232.215 84.5194L241.606 90.4955L245.875 94.7642L250.143 101.594L253.558 115.254V132.328L250.143 149.403L246.728 159.648L240.752 172.454L231.361 190.382L224.531 200.627L214.287 214.287L204.896 224.531L195.504 233.069L180.137 242.46L166.478 249.29L148.549 254.412H145.988L146.842 285.146L145.988 286H129.767L116.107 284.293L95.6179 278.316L82.8119 273.194L69.1522 266.364L56.3463 257.827L46.9552 250.143L33.2955 236.484L23.9045 223.678L17.0746 212.579L9.39104 196.358L3.41493 178.43L0 155.379V134.89L2.56119 113.546L8.53731 93.0567L11.9522 86.2269L18.7821 71.7134L27.3194 58.9075L35.003 49.5164L44.394 39.2716L55.4925 29.8806L69.1522 20.4896L79.397 14.5134L93.9104 8.53731L104.155 5.12239L117.815 1.70746L130.621 0Z"
    fill="#E3F3FC" />
</svg>