<svg width="678" height="132" viewBox="0 0 678 132" fill="none" xmlns="http://www.w3.org/2000/svg">
  <path
    d="M42.0659 0H94.2857L104.44 21.7582L116.044 44.967L129.099 63.8242L145.055 81.2308L159.56 92.8352L182.769 104.44L203.077 108.791L677.407 110.242V111.692L670.154 113.143L673.055 117.495V130.549L671.604 132H132L107.341 129.099L89.9341 123.297L73.978 114.593L59.4725 102.989L49.3187 94.2857L33.3626 73.978L20.3077 53.6703L2.9011 17.4066L0 10.1538V5.8022L53.6703 4.35165H76.8791V1.45055H42.0659V0Z"
    fill="#E1EEFF" />
  <path
    d="M95.0459 0H676.716V108.791H202.387L177.727 102.989L158.87 92.8352L144.365 81.2308L131.31 68.1758L119.705 52.2198L105.2 27.5604L95.0459 4.35165V0Z"
    fill="#A5CCFF" />
</svg>