<svg width="1179" height="1321" viewBox="0 0 1179 1321" fill="none" xmlns="http://www.w3.org/2000/svg">
  <path
    d="M0 0H1.62173V1134.49H968.175L997.366 1139.62L1018.45 1146.04L1044.4 1157.59L1067.1 1171.7L1096.29 1194.8L1117.37 1216.62L1138.46 1243.57L1161.16 1279.51L1174.13 1305.17L1175.76 1316.72L1179 1319.29H1106.02L1096.29 1298.76L1081.7 1273.09L1065.48 1249.99L1049.26 1230.74L1028.18 1210.2L1007.1 1193.52L986.014 1180.69L960.066 1169.14L934.118 1161.44L911.414 1157.59L1.62173 1156.3L0 1155.02V0Z"
    fill="#E1EEFF" />
  <path
    d="M0 1155.75L911.414 1157.04L938.983 1162.17L966.553 1171.15L990.879 1182.7L1013.58 1198.1L1034.67 1214.79L1055.75 1236.61L1075.21 1262.27L1089.8 1284.09L1106.02 1316.17V1318.74L1024.94 1320.02H896.818L0 1318.74V1155.75Z"
    fill="#A5CCFF" />
</svg>