<svg width="47" height="52" viewBox="0 0 47 52" fill="none" xmlns="http://www.w3.org/2000/svg">
  <path
    d="M0 31.3827C0 28.9086 0.459162 26.4587 1.35133 24.173C2.2435 21.8871 3.55112 19.8102 5.19962 18.0607C6.84811 16.3112 8.80508 14.9235 10.9589 13.9766C13.1128 13.0299 15.4213 12.5425 17.7526 12.5425V31.3827H0Z"
    fill="#00A4F4" />
  <path
    d="M0 31.3826C0 34.0023 0.459162 36.5963 1.35133 39.0167C2.2435 41.4369 3.55112 43.6359 5.19962 45.4883C6.84811 47.3407 8.80508 48.8101 10.9589 49.8126C13.1128 50.8151 15.4213 51.3311 17.7526 51.3311V31.3826H0Z"
    fill="#2CBEFF" />
  <path
    d="M35.5046 31.3826C35.5046 34.0023 35.0457 36.5963 34.1537 39.0167C33.2615 41.4369 31.9539 43.6359 30.3051 45.4883C28.6566 47.3407 26.6995 48.8101 24.5456 49.8126C22.3918 50.8151 20.0832 51.3311 17.752 51.3311V31.3826H35.5046Z"
    fill="#75D4FF" />
  <path
    d="M46.9929 14.7591C46.9929 22.7159 40.9146 29.1663 33.4172 29.1663H19.8418V14.7591C19.8418 6.80222 25.9198 0.351868 33.4172 0.351868C40.9146 0.351868 46.9929 6.80222 46.9929 14.7591Z"
    fill="#0360D9" />
</svg>