<svg width="81" height="86" viewBox="0 0 81 86" fill="none" xmlns="http://www.w3.org/2000/svg">
<g clip-path="url(#clip0_211_261)">
<path d="M81 0H0V85.1655H81V0Z" fill="white"/>
<path d="M7.50647 5.32275H5.0625V7.8924H7.50647V5.32275Z" fill="black"/>
<path d="M9.95043 5.32275H7.50647V7.8924H9.95043V5.32275Z" fill="black"/>
<path d="M12.3944 5.32275H9.95043V7.8924H12.3944V5.32275Z" fill="black"/>
<path d="M14.8384 5.32275H12.3944V7.8924H14.8384V5.32275Z" fill="black"/>
<path d="M17.2823 5.32275H14.8384V7.8924H17.2823V5.32275Z" fill="black"/>
<path d="M19.7263 5.32275H17.2823V7.8924H19.7263V5.32275Z" fill="black"/>
<path d="M22.1703 5.32275H19.7263V7.8924H22.1703V5.32275Z" fill="black"/>
<path d="M27.0582 5.32275H24.6142V7.8924H27.0582V5.32275Z" fill="black"/>
<path d="M31.9461 5.32275H29.5022V7.8924H31.9461V5.32275Z" fill="black"/>
<path d="M44.1659 5.32275H41.722V7.8924H44.1659V5.32275Z" fill="black"/>
<path d="M46.6099 5.32275H44.1659V7.8924H46.6099V5.32275Z" fill="black"/>
<path d="M51.4978 5.32275H49.0539V7.8924H51.4978V5.32275Z" fill="black"/>
<path d="M56.3858 5.32275H53.9418V7.8924H56.3858V5.32275Z" fill="black"/>
<path d="M61.2737 5.32275H58.8297V7.8924H61.2737V5.32275Z" fill="black"/>
<path d="M63.7177 5.32275H61.2737V7.8924H63.7177V5.32275Z" fill="black"/>
<path d="M66.1616 5.32275H63.7177V7.8924H66.1616V5.32275Z" fill="black"/>
<path d="M68.6056 5.32275H66.1616V7.8924H68.6056V5.32275Z" fill="black"/>
<path d="M71.0496 5.32275H68.6056V7.8924H71.0496V5.32275Z" fill="black"/>
<path d="M73.4935 5.32275H71.0496V7.8924H73.4935V5.32275Z" fill="black"/>
<path d="M75.9375 5.32275H73.4935V7.8924H75.9375V5.32275Z" fill="black"/>
<path d="M7.50647 7.8924H5.0625V10.4621H7.50647V7.8924Z" fill="black"/>
<path d="M22.1703 7.8924H19.7263V10.4621H22.1703V7.8924Z" fill="black"/>
<path d="M29.5022 7.8924H27.0582V10.4621H29.5022V7.8924Z" fill="black"/>
<path d="M31.9461 7.8924H29.5022V10.4621H31.9461V7.8924Z" fill="black"/>
<path d="M34.3901 7.8924H31.9461V10.4621H34.3901V7.8924Z" fill="black"/>
<path d="M36.8341 7.8924H34.3901V10.4621H36.8341V7.8924Z" fill="black"/>
<path d="M41.722 7.8924H39.278V10.4621H41.722V7.8924Z" fill="black"/>
<path d="M44.1659 7.8924H41.722V10.4621H44.1659V7.8924Z" fill="black"/>
<path d="M61.2737 7.8924H58.8297V10.4621H61.2737V7.8924Z" fill="black"/>
<path d="M75.9375 7.8924H73.4935V10.4621H75.9375V7.8924Z" fill="black"/>
<path d="M7.50647 10.4621H5.0625V13.0317H7.50647V10.4621Z" fill="black"/>
<path d="M12.3944 10.4621H9.95043V13.0317H12.3944V10.4621Z" fill="black"/>
<path d="M14.8384 10.4621H12.3944V13.0317H14.8384V10.4621Z" fill="black"/>
<path d="M17.2823 10.4621H14.8384V13.0317H17.2823V10.4621Z" fill="black"/>
<path d="M22.1703 10.4621H19.7263V13.0317H22.1703V10.4621Z" fill="black"/>
<path d="M31.9461 10.4621H29.5022V13.0317H31.9461V10.4621Z" fill="black"/>
<path d="M34.3901 10.4621H31.9461V13.0317H34.3901V10.4621Z" fill="black"/>
<path d="M36.8341 10.4621H34.3901V13.0317H36.8341V10.4621Z" fill="black"/>
<path d="M39.278 10.4621H36.8341V13.0317H39.278V10.4621Z" fill="black"/>
<path d="M44.1659 10.4621H41.722V13.0317H44.1659V10.4621Z" fill="black"/>
<path d="M46.6099 10.4621H44.1659V13.0317H46.6099V10.4621Z" fill="black"/>
<path d="M53.9418 10.4621H51.4978V13.0317H53.9418V10.4621Z" fill="black"/>
<path d="M56.3858 10.4621H53.9418V13.0317H56.3858V10.4621Z" fill="black"/>
<path d="M61.2737 10.4621H58.8297V13.0317H61.2737V10.4621Z" fill="black"/>
<path d="M66.1616 10.4621H63.7177V13.0317H66.1616V10.4621Z" fill="black"/>
<path d="M68.6056 10.4621H66.1616V13.0317H68.6056V10.4621Z" fill="black"/>
<path d="M71.0496 10.4621H68.6056V13.0317H71.0496V10.4621Z" fill="black"/>
<path d="M75.9375 10.4621H73.4935V13.0317H75.9375V10.4621Z" fill="black"/>
<path d="M7.50647 13.0317H5.0625V15.6013H7.50647V13.0317Z" fill="black"/>
<path d="M12.3944 13.0317H9.95043V15.6013H12.3944V13.0317Z" fill="black"/>
<path d="M14.8384 13.0317H12.3944V15.6013H14.8384V13.0317Z" fill="black"/>
<path d="M17.2823 13.0317H14.8384V15.6013H17.2823V13.0317Z" fill="black"/>
<path d="M22.1703 13.0317H19.7263V15.6013H22.1703V13.0317Z" fill="black"/>
<path d="M27.0582 13.0317H24.6142V15.6013H27.0582V13.0317Z" fill="black"/>
<path d="M29.5022 13.0317H27.0582V15.6013H29.5022V13.0317Z" fill="black"/>
<path d="M31.9461 13.0317H29.5022V15.6013H31.9461V13.0317Z" fill="black"/>
<path d="M34.3901 13.0317H31.9461V15.6013H34.3901V13.0317Z" fill="black"/>
<path d="M39.278 13.0317H36.8341V15.6013H39.278V13.0317Z" fill="black"/>
<path d="M46.6099 13.0317H44.1659V15.6013H46.6099V13.0317Z" fill="black"/>
<path d="M53.9418 13.0317H51.4978V15.6013H53.9418V13.0317Z" fill="black"/>
<path d="M61.2737 13.0317H58.8297V15.6013H61.2737V13.0317Z" fill="black"/>
<path d="M66.1616 13.0317H63.7177V15.6013H66.1616V13.0317Z" fill="black"/>
<path d="M68.6056 13.0317H66.1616V15.6013H68.6056V13.0317Z" fill="black"/>
<path d="M71.0496 13.0317H68.6056V15.6013H71.0496V13.0317Z" fill="black"/>
<path d="M75.9375 13.0317H73.4935V15.6013H75.9375V13.0317Z" fill="black"/>
<path d="M7.50647 15.6013H5.0625V18.171H7.50647V15.6013Z" fill="black"/>
<path d="M12.3944 15.6013H9.95043V18.171H12.3944V15.6013Z" fill="black"/>
<path d="M14.8384 15.6013H12.3944V18.171H14.8384V15.6013Z" fill="black"/>
<path d="M17.2823 15.6013H14.8384V18.171H17.2823V15.6013Z" fill="black"/>
<path d="M22.1703 15.6013H19.7263V18.171H22.1703V15.6013Z" fill="black"/>
<path d="M39.278 15.6013H36.8341V18.171H39.278V15.6013Z" fill="black"/>
<path d="M41.722 15.6013H39.278V18.171H41.722V15.6013Z" fill="black"/>
<path d="M44.1659 15.6013H41.722V18.171H44.1659V15.6013Z" fill="black"/>
<path d="M49.0539 15.6013H46.6099V18.171H49.0539V15.6013Z" fill="black"/>
<path d="M61.2737 15.6013H58.8297V18.171H61.2737V15.6013Z" fill="black"/>
<path d="M66.1616 15.6013H63.7177V18.171H66.1616V15.6013Z" fill="black"/>
<path d="M68.6056 15.6013H66.1616V18.171H68.6056V15.6013Z" fill="black"/>
<path d="M71.0496 15.6013H68.6056V18.171H71.0496V15.6013Z" fill="black"/>
<path d="M75.9375 15.6013H73.4935V18.171H75.9375V15.6013Z" fill="black"/>
<path d="M7.50647 18.171H5.0625V20.7406H7.50647V18.171Z" fill="black"/>
<path d="M22.1703 18.171H19.7263V20.7406H22.1703V18.171Z" fill="black"/>
<path d="M27.0582 18.171H24.6142V20.7406H27.0582V18.171Z" fill="black"/>
<path d="M29.5022 18.171H27.0582V20.7406H29.5022V18.171Z" fill="black"/>
<path d="M31.9461 18.171H29.5022V20.7406H31.9461V18.171Z" fill="black"/>
<path d="M34.3901 18.171H31.9461V20.7406H34.3901V18.171Z" fill="black"/>
<path d="M36.8341 18.171H34.3901V20.7406H36.8341V18.171Z" fill="black"/>
<path d="M39.278 18.171H36.8341V20.7406H39.278V18.171Z" fill="black"/>
<path d="M44.1659 18.171H41.722V20.7406H44.1659V18.171Z" fill="black"/>
<path d="M46.6099 18.171H44.1659V20.7406H46.6099V18.171Z" fill="black"/>
<path d="M61.2737 18.171H58.8297V20.7406H61.2737V18.171Z" fill="black"/>
<path d="M75.9375 18.171H73.4935V20.7406H75.9375V18.171Z" fill="black"/>
<path d="M7.50647 20.7406H5.0625V23.3103H7.50647V20.7406Z" fill="black"/>
<path d="M9.95043 20.7406H7.50647V23.3103H9.95043V20.7406Z" fill="black"/>
<path d="M12.3944 20.7406H9.95043V23.3103H12.3944V20.7406Z" fill="black"/>
<path d="M14.8384 20.7406H12.3944V23.3103H14.8384V20.7406Z" fill="black"/>
<path d="M17.2823 20.7406H14.8384V23.3103H17.2823V20.7406Z" fill="black"/>
<path d="M19.7263 20.7406H17.2823V23.3103H19.7263V20.7406Z" fill="black"/>
<path d="M22.1703 20.7406H19.7263V23.3103H22.1703V20.7406Z" fill="black"/>
<path d="M27.0582 20.7406H24.6142V23.3103H27.0582V20.7406Z" fill="black"/>
<path d="M31.9461 20.7406H29.5022V23.3103H31.9461V20.7406Z" fill="black"/>
<path d="M36.8341 20.7406H34.3901V23.3103H36.8341V20.7406Z" fill="black"/>
<path d="M41.722 20.7406H39.278V23.3103H41.722V20.7406Z" fill="black"/>
<path d="M46.6099 20.7406H44.1659V23.3103H46.6099V20.7406Z" fill="black"/>
<path d="M51.4978 20.7406H49.0539V23.3103H51.4978V20.7406Z" fill="black"/>
<path d="M56.3858 20.7406H53.9418V23.3103H56.3858V20.7406Z" fill="black"/>
<path d="M61.2737 20.7406H58.8297V23.3103H61.2737V20.7406Z" fill="black"/>
<path d="M63.7177 20.7406H61.2737V23.3103H63.7177V20.7406Z" fill="black"/>
<path d="M66.1616 20.7406H63.7177V23.3103H66.1616V20.7406Z" fill="black"/>
<path d="M68.6056 20.7406H66.1616V23.3103H68.6056V20.7406Z" fill="black"/>
<path d="M71.0496 20.7406H68.6056V23.3103H71.0496V20.7406Z" fill="black"/>
<path d="M73.4935 20.7406H71.0496V23.3103H73.4935V20.7406Z" fill="black"/>
<path d="M75.9375 20.7406H73.4935V23.3103H75.9375V20.7406Z" fill="black"/>
<path d="M29.5022 23.3103H27.0582V25.8799H29.5022V23.3103Z" fill="black"/>
<path d="M41.722 23.3103H39.278V25.8799H41.722V23.3103Z" fill="black"/>
<path d="M49.0539 23.3103H46.6099V25.8799H49.0539V23.3103Z" fill="black"/>
<path d="M51.4978 23.3103H49.0539V25.8799H51.4978V23.3103Z" fill="black"/>
<path d="M53.9418 23.3103H51.4978V25.8799H53.9418V23.3103Z" fill="black"/>
<path d="M56.3858 23.3103H53.9418V25.8799H56.3858V23.3103Z" fill="black"/>
<path d="M19.7263 25.8799H17.2823V28.4496H19.7263V25.8799Z" fill="black"/>
<path d="M22.1703 25.8799H19.7263V28.4496H22.1703V25.8799Z" fill="black"/>
<path d="M27.0582 25.8799H24.6142V28.4496H27.0582V25.8799Z" fill="black"/>
<path d="M29.5022 25.8799H27.0582V28.4496H29.5022V25.8799Z" fill="black"/>
<path d="M34.3901 25.8799H31.9461V28.4496H34.3901V25.8799Z" fill="black"/>
<path d="M36.8341 25.8799H34.3901V28.4496H36.8341V25.8799Z" fill="black"/>
<path d="M41.722 25.8799H39.278V28.4496H41.722V25.8799Z" fill="black"/>
<path d="M44.1659 25.8799H41.722V28.4496H44.1659V25.8799Z" fill="black"/>
<path d="M46.6099 25.8799H44.1659V28.4496H46.6099V25.8799Z" fill="black"/>
<path d="M49.0539 25.8799H46.6099V28.4496H49.0539V25.8799Z" fill="black"/>
<path d="M58.8297 25.8799H56.3858V28.4496H58.8297V25.8799Z" fill="black"/>
<path d="M63.7177 25.8799H61.2737V28.4496H63.7177V25.8799Z" fill="black"/>
<path d="M68.6056 25.8799H66.1616V28.4496H68.6056V25.8799Z" fill="black"/>
<path d="M75.9375 25.8799H73.4935V28.4496H75.9375V25.8799Z" fill="black"/>
<path d="M7.50647 28.4496H5.0625V31.0192H7.50647V28.4496Z" fill="black"/>
<path d="M14.8384 28.4496H12.3944V31.0192H14.8384V28.4496Z" fill="black"/>
<path d="M24.6142 28.4496H22.1703V31.0192H24.6142V28.4496Z" fill="black"/>
<path d="M27.0582 28.4496H24.6142V31.0192H27.0582V28.4496Z" fill="black"/>
<path d="M29.5022 28.4496H27.0582V31.0192H29.5022V28.4496Z" fill="black"/>
<path d="M44.1659 28.4496H41.722V31.0192H44.1659V28.4496Z" fill="black"/>
<path d="M49.0539 28.4496H46.6099V31.0192H49.0539V28.4496Z" fill="black"/>
<path d="M53.9418 28.4496H51.4978V31.0192H53.9418V28.4496Z" fill="black"/>
<path d="M58.8297 28.4496H56.3858V31.0192H58.8297V28.4496Z" fill="black"/>
<path d="M7.50647 31.0192H5.0625V33.5889H7.50647V31.0192Z" fill="black"/>
<path d="M14.8384 31.0192H12.3944V33.5889H14.8384V31.0192Z" fill="black"/>
<path d="M17.2823 31.0192H14.8384V33.5889H17.2823V31.0192Z" fill="black"/>
<path d="M22.1703 31.0192H19.7263V33.5889H22.1703V31.0192Z" fill="black"/>
<path d="M24.6142 31.0192H22.1703V33.5889H24.6142V31.0192Z" fill="black"/>
<path d="M27.0582 31.0192H24.6142V33.5889H27.0582V31.0192Z" fill="black"/>
<path d="M31.9461 31.0192H29.5022V33.5889H31.9461V31.0192Z" fill="black"/>
<path d="M36.8341 31.0192H34.3901V33.5889H36.8341V31.0192Z" fill="black"/>
<path d="M44.1659 31.0192H41.722V33.5889H44.1659V31.0192Z" fill="black"/>
<path d="M51.4978 31.0192H49.0539V33.5889H51.4978V31.0192Z" fill="black"/>
<path d="M56.3858 31.0192H53.9418V33.5889H56.3858V31.0192Z" fill="black"/>
<path d="M61.2737 31.0192H58.8297V33.5889H61.2737V31.0192Z" fill="black"/>
<path d="M66.1616 31.0192H63.7177V33.5889H66.1616V31.0192Z" fill="black"/>
<path d="M71.0496 31.0192H68.6056V33.5889H71.0496V31.0192Z" fill="black"/>
<path d="M75.9375 31.0192H73.4935V33.5889H75.9375V31.0192Z" fill="black"/>
<path d="M19.7263 33.5889H17.2823V36.1585H19.7263V33.5889Z" fill="black"/>
<path d="M31.9461 33.5889H29.5022V36.1585H31.9461V33.5889Z" fill="black"/>
<path d="M39.278 33.5889H36.8341V36.1585H39.278V33.5889Z" fill="black"/>
<path d="M41.722 33.5889H39.278V36.1585H41.722V33.5889Z" fill="black"/>
<path d="M46.6099 33.5889H44.1659V36.1585H46.6099V33.5889Z" fill="black"/>
<path d="M51.4978 33.5889H49.0539V36.1585H51.4978V33.5889Z" fill="black"/>
<path d="M53.9418 33.5889H51.4978V36.1585H53.9418V33.5889Z" fill="black"/>
<path d="M56.3858 33.5889H53.9418V36.1585H56.3858V33.5889Z" fill="black"/>
<path d="M58.8297 33.5889H56.3858V36.1585H58.8297V33.5889Z" fill="black"/>
<path d="M63.7177 33.5889H61.2737V36.1585H63.7177V33.5889Z" fill="black"/>
<path d="M66.1616 33.5889H63.7177V36.1585H66.1616V33.5889Z" fill="black"/>
<path d="M12.3944 36.1585H9.95043V38.7282H12.3944V36.1585Z" fill="black"/>
<path d="M22.1703 36.1585H19.7263V38.7282H22.1703V36.1585Z" fill="black"/>
<path d="M27.0582 36.1585H24.6142V38.7282H27.0582V36.1585Z" fill="black"/>
<path d="M29.5022 36.1585H27.0582V38.7282H29.5022V36.1585Z" fill="black"/>
<path d="M31.9461 36.1585H29.5022V38.7282H31.9461V36.1585Z" fill="black"/>
<path d="M34.3901 36.1585H31.9461V38.7282H34.3901V36.1585Z" fill="black"/>
<path d="M36.8341 36.1585H34.3901V38.7282H36.8341V36.1585Z" fill="black"/>
<path d="M41.722 36.1585H39.278V38.7282H41.722V36.1585Z" fill="black"/>
<path d="M44.1659 36.1585H41.722V38.7282H44.1659V36.1585Z" fill="black"/>
<path d="M51.4978 36.1585H49.0539V38.7282H51.4978V36.1585Z" fill="black"/>
<path d="M53.9418 36.1585H51.4978V38.7282H53.9418V36.1585Z" fill="black"/>
<path d="M61.2737 36.1585H58.8297V38.7282H61.2737V36.1585Z" fill="black"/>
<path d="M66.1616 36.1585H63.7177V38.7282H66.1616V36.1585Z" fill="black"/>
<path d="M71.0496 36.1585H68.6056V38.7282H71.0496V36.1585Z" fill="black"/>
<path d="M75.9375 36.1585H73.4935V38.7282H75.9375V36.1585Z" fill="black"/>
<path d="M7.50647 38.7282H5.0625V41.2978H7.50647V38.7282Z" fill="black"/>
<path d="M9.95043 38.7282H7.50647V41.2978H9.95043V38.7282Z" fill="black"/>
<path d="M12.3944 38.7282H9.95043V41.2978H12.3944V38.7282Z" fill="black"/>
<path d="M14.8384 38.7282H12.3944V41.2978H14.8384V38.7282Z" fill="black"/>
<path d="M17.2823 38.7282H14.8384V41.2978H17.2823V38.7282Z" fill="black"/>
<path d="M19.7263 38.7282H17.2823V41.2978H19.7263V38.7282Z" fill="black"/>
<path d="M44.1659 38.7282H41.722V41.2978H44.1659V38.7282Z" fill="black"/>
<path d="M46.6099 38.7282H44.1659V41.2978H46.6099V38.7282Z" fill="black"/>
<path d="M51.4978 38.7282H49.0539V41.2978H51.4978V38.7282Z" fill="black"/>
<path d="M53.9418 38.7282H51.4978V41.2978H53.9418V38.7282Z" fill="black"/>
<path d="M58.8297 38.7282H56.3858V41.2978H58.8297V38.7282Z" fill="black"/>
<path d="M61.2737 38.7282H58.8297V41.2978H61.2737V38.7282Z" fill="black"/>
<path d="M63.7177 38.7282H61.2737V41.2978H63.7177V38.7282Z" fill="black"/>
<path d="M73.4935 38.7282H71.0496V41.2978H73.4935V38.7282Z" fill="black"/>
<path d="M75.9375 38.7282H73.4935V41.2978H75.9375V38.7282Z" fill="black"/>
<path d="M9.95043 41.2978H7.50647V43.8675H9.95043V41.2978Z" fill="black"/>
<path d="M14.8384 41.2978H12.3944V43.8675H14.8384V41.2978Z" fill="black"/>
<path d="M17.2823 41.2978H14.8384V43.8675H17.2823V41.2978Z" fill="black"/>
<path d="M19.7263 41.2978H17.2823V43.8675H19.7263V41.2978Z" fill="black"/>
<path d="M22.1703 41.2978H19.7263V43.8675H22.1703V41.2978Z" fill="black"/>
<path d="M24.6142 41.2978H22.1703V43.8675H24.6142V41.2978Z" fill="black"/>
<path d="M29.5022 41.2978H27.0582V43.8675H29.5022V41.2978Z" fill="black"/>
<path d="M34.3901 41.2978H31.9461V43.8675H34.3901V41.2978Z" fill="black"/>
<path d="M44.1659 41.2978H41.722V43.8675H44.1659V41.2978Z" fill="black"/>
<path d="M46.6099 41.2978H44.1659V43.8675H46.6099V41.2978Z" fill="black"/>
<path d="M56.3858 41.2978H53.9418V43.8675H56.3858V41.2978Z" fill="black"/>
<path d="M61.2737 41.2978H58.8297V43.8675H61.2737V41.2978Z" fill="black"/>
<path d="M66.1616 41.2978H63.7177V43.8675H66.1616V41.2978Z" fill="black"/>
<path d="M68.6056 41.2978H66.1616V43.8675H68.6056V41.2978Z" fill="black"/>
<path d="M75.9375 41.2978H73.4935V43.8675H75.9375V41.2978Z" fill="black"/>
<path d="M9.95043 43.8675H7.50647V46.4371H9.95043V43.8675Z" fill="black"/>
<path d="M14.8384 43.8675H12.3944V46.4371H14.8384V43.8675Z" fill="black"/>
<path d="M27.0582 43.8675H24.6142V46.4371H27.0582V43.8675Z" fill="black"/>
<path d="M29.5022 43.8675H27.0582V46.4371H29.5022V43.8675Z" fill="black"/>
<path d="M34.3901 43.8675H31.9461V46.4371H34.3901V43.8675Z" fill="black"/>
<path d="M39.278 43.8675H36.8341V46.4371H39.278V43.8675Z" fill="black"/>
<path d="M41.722 43.8675H39.278V46.4371H41.722V43.8675Z" fill="black"/>
<path d="M46.6099 43.8675H44.1659V46.4371H46.6099V43.8675Z" fill="black"/>
<path d="M49.0539 43.8675H46.6099V46.4371H49.0539V43.8675Z" fill="black"/>
<path d="M53.9418 43.8675H51.4978V46.4371H53.9418V43.8675Z" fill="black"/>
<path d="M58.8297 43.8675H56.3858V46.4371H58.8297V43.8675Z" fill="black"/>
<path d="M61.2737 43.8675H58.8297V46.4371H61.2737V43.8675Z" fill="black"/>
<path d="M66.1616 43.8675H63.7177V46.4371H66.1616V43.8675Z" fill="black"/>
<path d="M68.6056 43.8675H66.1616V46.4371H68.6056V43.8675Z" fill="black"/>
<path d="M73.4935 43.8675H71.0496V46.4371H73.4935V43.8675Z" fill="black"/>
<path d="M7.50647 46.4371H5.0625V49.0068H7.50647V46.4371Z" fill="black"/>
<path d="M12.3944 46.4371H9.95043V49.0068H12.3944V46.4371Z" fill="black"/>
<path d="M17.2823 46.4371H14.8384V49.0068H17.2823V46.4371Z" fill="black"/>
<path d="M22.1703 46.4371H19.7263V49.0068H22.1703V46.4371Z" fill="black"/>
<path d="M31.9461 46.4371H29.5022V49.0068H31.9461V46.4371Z" fill="black"/>
<path d="M36.8341 46.4371H34.3901V49.0068H36.8341V46.4371Z" fill="black"/>
<path d="M41.722 46.4371H39.278V49.0068H41.722V46.4371Z" fill="black"/>
<path d="M44.1659 46.4371H41.722V49.0068H44.1659V46.4371Z" fill="black"/>
<path d="M46.6099 46.4371H44.1659V49.0068H46.6099V46.4371Z" fill="black"/>
<path d="M53.9418 46.4371H51.4978V49.0068H53.9418V46.4371Z" fill="black"/>
<path d="M56.3858 46.4371H53.9418V49.0068H56.3858V46.4371Z" fill="black"/>
<path d="M58.8297 46.4371H56.3858V49.0068H58.8297V46.4371Z" fill="black"/>
<path d="M63.7177 46.4371H61.2737V49.0068H63.7177V46.4371Z" fill="black"/>
<path d="M68.6056 46.4371H66.1616V49.0068H68.6056V46.4371Z" fill="black"/>
<path d="M9.95043 49.0068H7.50647V51.5764H9.95043V49.0068Z" fill="black"/>
<path d="M12.3944 49.0068H9.95043V51.5764H12.3944V49.0068Z" fill="black"/>
<path d="M24.6142 49.0068H22.1703V51.5764H24.6142V49.0068Z" fill="black"/>
<path d="M31.9461 49.0068H29.5022V51.5764H31.9461V49.0068Z" fill="black"/>
<path d="M36.8341 49.0068H34.3901V51.5764H36.8341V49.0068Z" fill="black"/>
<path d="M39.278 49.0068H36.8341V51.5764H39.278V49.0068Z" fill="black"/>
<path d="M44.1659 49.0068H41.722V51.5764H44.1659V49.0068Z" fill="black"/>
<path d="M46.6099 49.0068H44.1659V51.5764H46.6099V49.0068Z" fill="black"/>
<path d="M51.4978 49.0068H49.0539V51.5764H51.4978V49.0068Z" fill="black"/>
<path d="M53.9418 49.0068H51.4978V51.5764H53.9418V49.0068Z" fill="black"/>
<path d="M61.2737 49.0068H58.8297V51.5764H61.2737V49.0068Z" fill="black"/>
<path d="M7.50647 51.5764H5.0625V54.1461H7.50647V51.5764Z" fill="black"/>
<path d="M9.95043 51.5764H7.50647V54.1461H9.95043V51.5764Z" fill="black"/>
<path d="M12.3944 51.5764H9.95043V54.1461H12.3944V51.5764Z" fill="black"/>
<path d="M14.8384 51.5764H12.3944V54.1461H14.8384V51.5764Z" fill="black"/>
<path d="M17.2823 51.5764H14.8384V54.1461H17.2823V51.5764Z" fill="black"/>
<path d="M22.1703 51.5764H19.7263V54.1461H22.1703V51.5764Z" fill="black"/>
<path d="M24.6142 51.5764H22.1703V54.1461H24.6142V51.5764Z" fill="black"/>
<path d="M27.0582 51.5764H24.6142V54.1461H27.0582V51.5764Z" fill="black"/>
<path d="M39.278 51.5764H36.8341V54.1461H39.278V51.5764Z" fill="black"/>
<path d="M44.1659 51.5764H41.722V54.1461H44.1659V51.5764Z" fill="black"/>
<path d="M49.0539 51.5764H46.6099V54.1461H49.0539V51.5764Z" fill="black"/>
<path d="M51.4978 51.5764H49.0539V54.1461H51.4978V51.5764Z" fill="black"/>
<path d="M53.9418 51.5764H51.4978V54.1461H53.9418V51.5764Z" fill="black"/>
<path d="M56.3858 51.5764H53.9418V54.1461H56.3858V51.5764Z" fill="black"/>
<path d="M63.7177 51.5764H61.2737V54.1461H63.7177V51.5764Z" fill="black"/>
<path d="M66.1616 51.5764H63.7177V54.1461H66.1616V51.5764Z" fill="black"/>
<path d="M7.50647 54.1461H5.0625V56.7157H7.50647V54.1461Z" fill="black"/>
<path d="M19.7263 54.1461H17.2823V56.7157H19.7263V54.1461Z" fill="black"/>
<path d="M27.0582 54.1461H24.6142V56.7157H27.0582V54.1461Z" fill="black"/>
<path d="M31.9461 54.1461H29.5022V56.7157H31.9461V54.1461Z" fill="black"/>
<path d="M34.3901 54.1461H31.9461V56.7157H34.3901V54.1461Z" fill="black"/>
<path d="M39.278 54.1461H36.8341V56.7157H39.278V54.1461Z" fill="black"/>
<path d="M53.9418 54.1461H51.4978V56.7157H53.9418V54.1461Z" fill="black"/>
<path d="M68.6056 54.1461H66.1616V56.7157H68.6056V54.1461Z" fill="black"/>
<path d="M71.0496 54.1461H68.6056V56.7157H71.0496V54.1461Z" fill="black"/>
<path d="M73.4935 54.1461H71.0496V56.7157H73.4935V54.1461Z" fill="black"/>
<path d="M12.3944 56.7157H9.95043V59.2854H12.3944V56.7157Z" fill="black"/>
<path d="M22.1703 56.7157H19.7263V59.2854H22.1703V56.7157Z" fill="black"/>
<path d="M29.5022 56.7157H27.0582V59.2854H29.5022V56.7157Z" fill="black"/>
<path d="M31.9461 56.7157H29.5022V59.2854H31.9461V56.7157Z" fill="black"/>
<path d="M39.278 56.7157H36.8341V59.2854H39.278V56.7157Z" fill="black"/>
<path d="M44.1659 56.7157H41.722V59.2854H44.1659V56.7157Z" fill="black"/>
<path d="M46.6099 56.7157H44.1659V59.2854H46.6099V56.7157Z" fill="black"/>
<path d="M49.0539 56.7157H46.6099V59.2854H49.0539V56.7157Z" fill="black"/>
<path d="M56.3858 56.7157H53.9418V59.2854H56.3858V56.7157Z" fill="black"/>
<path d="M58.8297 56.7157H56.3858V59.2854H58.8297V56.7157Z" fill="black"/>
<path d="M61.2737 56.7157H58.8297V59.2854H61.2737V56.7157Z" fill="black"/>
<path d="M63.7177 56.7157H61.2737V59.2854H63.7177V56.7157Z" fill="black"/>
<path d="M66.1616 56.7157H63.7177V59.2854H66.1616V56.7157Z" fill="black"/>
<path d="M73.4935 56.7157H71.0496V59.2854H73.4935V56.7157Z" fill="black"/>
<path d="M75.9375 56.7157H73.4935V59.2854H75.9375V56.7157Z" fill="black"/>
<path d="M27.0582 59.2854H24.6142V61.855H27.0582V59.2854Z" fill="black"/>
<path d="M36.8341 59.2854H34.3901V61.855H36.8341V59.2854Z" fill="black"/>
<path d="M41.722 59.2854H39.278V61.855H41.722V59.2854Z" fill="black"/>
<path d="M44.1659 59.2854H41.722V61.855H44.1659V59.2854Z" fill="black"/>
<path d="M46.6099 59.2854H44.1659V61.855H46.6099V59.2854Z" fill="black"/>
<path d="M49.0539 59.2854H46.6099V61.855H49.0539V59.2854Z" fill="black"/>
<path d="M51.4978 59.2854H49.0539V61.855H51.4978V59.2854Z" fill="black"/>
<path d="M56.3858 59.2854H53.9418V61.855H56.3858V59.2854Z" fill="black"/>
<path d="M66.1616 59.2854H63.7177V61.855H66.1616V59.2854Z" fill="black"/>
<path d="M71.0496 59.2854H68.6056V61.855H71.0496V59.2854Z" fill="black"/>
<path d="M73.4935 59.2854H71.0496V61.855H73.4935V59.2854Z" fill="black"/>
<path d="M7.50647 61.855H5.0625V64.4247H7.50647V61.855Z" fill="black"/>
<path d="M9.95043 61.855H7.50647V64.4247H9.95043V61.855Z" fill="black"/>
<path d="M12.3944 61.855H9.95043V64.4247H12.3944V61.855Z" fill="black"/>
<path d="M14.8384 61.855H12.3944V64.4247H14.8384V61.855Z" fill="black"/>
<path d="M17.2823 61.855H14.8384V64.4247H17.2823V61.855Z" fill="black"/>
<path d="M19.7263 61.855H17.2823V64.4247H19.7263V61.855Z" fill="black"/>
<path d="M22.1703 61.855H19.7263V64.4247H22.1703V61.855Z" fill="black"/>
<path d="M29.5022 61.855H27.0582V64.4247H29.5022V61.855Z" fill="black"/>
<path d="M34.3901 61.855H31.9461V64.4247H34.3901V61.855Z" fill="black"/>
<path d="M36.8341 61.855H34.3901V64.4247H36.8341V61.855Z" fill="black"/>
<path d="M41.722 61.855H39.278V64.4247H41.722V61.855Z" fill="black"/>
<path d="M49.0539 61.855H46.6099V64.4247H49.0539V61.855Z" fill="black"/>
<path d="M56.3858 61.855H53.9418V64.4247H56.3858V61.855Z" fill="black"/>
<path d="M61.2737 61.855H58.8297V64.4247H61.2737V61.855Z" fill="black"/>
<path d="M66.1616 61.855H63.7177V64.4247H66.1616V61.855Z" fill="black"/>
<path d="M68.6056 61.855H66.1616V64.4247H68.6056V61.855Z" fill="black"/>
<path d="M75.9375 61.855H73.4935V64.4247H75.9375V61.855Z" fill="black"/>
<path d="M7.50647 64.4247H5.0625V66.9943H7.50647V64.4247Z" fill="black"/>
<path d="M22.1703 64.4247H19.7263V66.9943H22.1703V64.4247Z" fill="black"/>
<path d="M27.0582 64.4247H24.6142V66.9943H27.0582V64.4247Z" fill="black"/>
<path d="M31.9461 64.4247H29.5022V66.9943H31.9461V64.4247Z" fill="black"/>
<path d="M34.3901 64.4247H31.9461V66.9943H34.3901V64.4247Z" fill="black"/>
<path d="M39.278 64.4247H36.8341V66.9943H39.278V64.4247Z" fill="black"/>
<path d="M49.0539 64.4247H46.6099V66.9943H49.0539V64.4247Z" fill="black"/>
<path d="M51.4978 64.4247H49.0539V66.9943H51.4978V64.4247Z" fill="black"/>
<path d="M53.9418 64.4247H51.4978V66.9943H53.9418V64.4247Z" fill="black"/>
<path d="M56.3858 64.4247H53.9418V66.9943H56.3858V64.4247Z" fill="black"/>
<path d="M66.1616 64.4247H63.7177V66.9943H66.1616V64.4247Z" fill="black"/>
<path d="M68.6056 64.4247H66.1616V66.9943H68.6056V64.4247Z" fill="black"/>
<path d="M73.4935 64.4247H71.0496V66.9943H73.4935V64.4247Z" fill="black"/>
<path d="M7.50647 66.9943H5.0625V69.564H7.50647V66.9943Z" fill="black"/>
<path d="M12.3944 66.9943H9.95043V69.564H12.3944V66.9943Z" fill="black"/>
<path d="M14.8384 66.9943H12.3944V69.564H14.8384V66.9943Z" fill="black"/>
<path d="M17.2823 66.9943H14.8384V69.564H17.2823V66.9943Z" fill="black"/>
<path d="M22.1703 66.9943H19.7263V69.564H22.1703V66.9943Z" fill="black"/>
<path d="M31.9461 66.9943H29.5022V69.564H31.9461V66.9943Z" fill="black"/>
<path d="M34.3901 66.9943H31.9461V69.564H34.3901V66.9943Z" fill="black"/>
<path d="M41.722 66.9943H39.278V69.564H41.722V66.9943Z" fill="black"/>
<path d="M44.1659 66.9943H41.722V69.564H44.1659V66.9943Z" fill="black"/>
<path d="M51.4978 66.9943H49.0539V69.564H51.4978V66.9943Z" fill="black"/>
<path d="M53.9418 66.9943H51.4978V69.564H53.9418V66.9943Z" fill="black"/>
<path d="M56.3858 66.9943H53.9418V69.564H56.3858V66.9943Z" fill="black"/>
<path d="M58.8297 66.9943H56.3858V69.564H58.8297V66.9943Z" fill="black"/>
<path d="M61.2737 66.9943H58.8297V69.564H61.2737V66.9943Z" fill="black"/>
<path d="M63.7177 66.9943H61.2737V69.564H63.7177V66.9943Z" fill="black"/>
<path d="M66.1616 66.9943H63.7177V69.564H66.1616V66.9943Z" fill="black"/>
<path d="M68.6056 66.9943H66.1616V69.564H68.6056V66.9943Z" fill="black"/>
<path d="M71.0496 66.9943H68.6056V69.564H71.0496V66.9943Z" fill="black"/>
<path d="M73.4935 66.9943H71.0496V69.564H73.4935V66.9943Z" fill="black"/>
<path d="M75.9375 66.9943H73.4935V69.564H75.9375V66.9943Z" fill="black"/>
<path d="M7.50647 69.564H5.0625V72.1336H7.50647V69.564Z" fill="black"/>
<path d="M12.3944 69.564H9.95043V72.1336H12.3944V69.564Z" fill="black"/>
<path d="M14.8384 69.564H12.3944V72.1336H14.8384V69.564Z" fill="black"/>
<path d="M17.2823 69.564H14.8384V72.1336H17.2823V69.564Z" fill="black"/>
<path d="M22.1703 69.564H19.7263V72.1336H22.1703V69.564Z" fill="black"/>
<path d="M29.5022 69.564H27.0582V72.1336H29.5022V69.564Z" fill="black"/>
<path d="M31.9461 69.564H29.5022V72.1336H31.9461V69.564Z" fill="black"/>
<path d="M34.3901 69.564H31.9461V72.1336H34.3901V69.564Z" fill="black"/>
<path d="M36.8341 69.564H34.3901V72.1336H36.8341V69.564Z" fill="black"/>
<path d="M44.1659 69.564H41.722V72.1336H44.1659V69.564Z" fill="black"/>
<path d="M46.6099 69.564H44.1659V72.1336H46.6099V69.564Z" fill="black"/>
<path d="M51.4978 69.564H49.0539V72.1336H51.4978V69.564Z" fill="black"/>
<path d="M66.1616 69.564H63.7177V72.1336H66.1616V69.564Z" fill="black"/>
<path d="M68.6056 69.564H66.1616V72.1336H68.6056V69.564Z" fill="black"/>
<path d="M7.50647 72.1336H5.0625V74.7033H7.50647V72.1336Z" fill="black"/>
<path d="M12.3944 72.1336H9.95043V74.7033H12.3944V72.1336Z" fill="black"/>
<path d="M14.8384 72.1336H12.3944V74.7033H14.8384V72.1336Z" fill="black"/>
<path d="M17.2823 72.1336H14.8384V74.7033H17.2823V72.1336Z" fill="black"/>
<path d="M22.1703 72.1336H19.7263V74.7033H22.1703V72.1336Z" fill="black"/>
<path d="M31.9461 72.1336H29.5022V74.7033H31.9461V72.1336Z" fill="black"/>
<path d="M34.3901 72.1336H31.9461V74.7033H34.3901V72.1336Z" fill="black"/>
<path d="M39.278 72.1336H36.8341V74.7033H39.278V72.1336Z" fill="black"/>
<path d="M41.722 72.1336H39.278V74.7033H41.722V72.1336Z" fill="black"/>
<path d="M56.3858 72.1336H53.9418V74.7033H56.3858V72.1336Z" fill="black"/>
<path d="M58.8297 72.1336H56.3858V74.7033H58.8297V72.1336Z" fill="black"/>
<path d="M63.7177 72.1336H61.2737V74.7033H63.7177V72.1336Z" fill="black"/>
<path d="M7.50647 74.7033H5.0625V77.2729H7.50647V74.7033Z" fill="black"/>
<path d="M22.1703 74.7033H19.7263V77.2729H22.1703V74.7033Z" fill="black"/>
<path d="M31.9461 74.7033H29.5022V77.2729H31.9461V74.7033Z" fill="black"/>
<path d="M34.3901 74.7033H31.9461V77.2729H34.3901V74.7033Z" fill="black"/>
<path d="M36.8341 74.7033H34.3901V77.2729H36.8341V74.7033Z" fill="black"/>
<path d="M41.722 74.7033H39.278V77.2729H41.722V74.7033Z" fill="black"/>
<path d="M44.1659 74.7033H41.722V77.2729H44.1659V74.7033Z" fill="black"/>
<path d="M46.6099 74.7033H44.1659V77.2729H46.6099V74.7033Z" fill="black"/>
<path d="M51.4978 74.7033H49.0539V77.2729H51.4978V74.7033Z" fill="black"/>
<path d="M53.9418 74.7033H51.4978V77.2729H53.9418V74.7033Z" fill="black"/>
<path d="M58.8297 74.7033H56.3858V77.2729H58.8297V74.7033Z" fill="black"/>
<path d="M61.2737 74.7033H58.8297V77.2729H61.2737V74.7033Z" fill="black"/>
<path d="M63.7177 74.7033H61.2737V77.2729H63.7177V74.7033Z" fill="black"/>
<path d="M66.1616 74.7033H63.7177V77.2729H66.1616V74.7033Z" fill="black"/>
<path d="M73.4935 74.7033H71.0496V77.2729H73.4935V74.7033Z" fill="black"/>
<path d="M75.9375 74.7033H73.4935V77.2729H75.9375V74.7033Z" fill="black"/>
<path d="M7.50647 77.2729H5.0625V79.8426H7.50647V77.2729Z" fill="black"/>
<path d="M9.95043 77.2729H7.50647V79.8426H9.95043V77.2729Z" fill="black"/>
<path d="M12.3944 77.2729H9.95043V79.8426H12.3944V77.2729Z" fill="black"/>
<path d="M14.8384 77.2729H12.3944V79.8426H14.8384V77.2729Z" fill="black"/>
<path d="M17.2823 77.2729H14.8384V79.8426H17.2823V77.2729Z" fill="black"/>
<path d="M19.7263 77.2729H17.2823V79.8426H19.7263V77.2729Z" fill="black"/>
<path d="M22.1703 77.2729H19.7263V79.8426H22.1703V77.2729Z" fill="black"/>
<path d="M29.5022 77.2729H27.0582V79.8426H29.5022V77.2729Z" fill="black"/>
<path d="M36.8341 77.2729H34.3901V79.8426H36.8341V77.2729Z" fill="black"/>
<path d="M41.722 77.2729H39.278V79.8426H41.722V77.2729Z" fill="black"/>
<path d="M49.0539 77.2729H46.6099V79.8426H49.0539V77.2729Z" fill="black"/>
<path d="M51.4978 77.2729H49.0539V79.8426H51.4978V77.2729Z" fill="black"/>
<path d="M53.9418 77.2729H51.4978V79.8426H53.9418V77.2729Z" fill="black"/>
<path d="M58.8297 77.2729H56.3858V79.8426H58.8297V77.2729Z" fill="black"/>
<path d="M68.6056 77.2729H66.1616V79.8426H68.6056V77.2729Z" fill="black"/>
<path d="M71.0496 77.2729H68.6056V79.8426H71.0496V77.2729Z" fill="black"/>
</g>
<defs>
<clipPath id="clip0_211_261">
<rect width="81" height="85.1655" fill="white"/>
</clipPath>
</defs>
</svg>
