<svg width="204" height="52" viewBox="0 0 204 52" fill="none" xmlns="http://www.w3.org/2000/svg">
<path d="M80.168 21.882H80.072L78.44 25.146L74.088 33.05L69.832 25.178L68.136 21.658H68.04V36.538H63.464V14.202H68.616L74.088 24.666H74.152L79.56 14.202H84.744V36.538H80.168V21.882ZM96.4348 36.922C95.1548 36.922 94.0134 36.7193 93.0108 36.314C92.0081 35.8873 91.1548 35.3006 90.4508 34.554C89.7681 33.786 89.2454 32.858 88.8828 31.77C88.5414 30.682 88.3708 29.466 88.3708 28.122C88.3708 26.7993 88.5414 25.6046 88.8828 24.538C89.2241 23.45 89.7254 22.522 90.3868 21.754C91.0694 20.986 91.9014 20.3993 92.8828 19.994C93.8641 19.5673 94.9841 19.354 96.2428 19.354C97.6294 19.354 98.8134 19.5886 99.7948 20.058C100.797 20.5273 101.608 21.1566 102.227 21.946C102.867 22.7353 103.325 23.6526 103.603 24.698C103.901 25.722 104.051 26.7993 104.051 27.93V29.338H93.2668V29.594C93.2668 30.7033 93.5654 31.5886 94.1628 32.25C94.7601 32.89 95.6988 33.21 96.9788 33.21C97.9601 33.21 98.7601 33.018 99.3788 32.634C99.9974 32.2286 100.573 31.7486 101.107 31.194L103.475 34.138C102.728 35.0126 101.747 35.6953 100.531 36.186C99.3361 36.6766 97.9708 36.922 96.4348 36.922ZM96.3388 22.842C95.3788 22.842 94.6214 23.162 94.0668 23.802C93.5334 24.4206 93.2668 25.2526 93.2668 26.298V26.554H99.1548V26.266C99.1548 25.242 98.9201 24.4206 98.4508 23.802C98.0028 23.162 97.2988 22.842 96.3388 22.842ZM117.7 33.722H117.54C117.412 34.17 117.209 34.5966 116.932 35.002C116.654 35.386 116.313 35.7273 115.908 36.026C115.524 36.3033 115.076 36.5166 114.564 36.666C114.073 36.8366 113.561 36.922 113.028 36.922C110.894 36.922 109.284 36.1753 108.196 34.682C107.108 33.1673 106.564 30.9806 106.564 28.122C106.564 25.2633 107.108 23.0873 108.196 21.594C109.284 20.1006 110.894 19.354 113.028 19.354C114.116 19.354 115.076 19.6526 115.908 20.25C116.761 20.8473 117.305 21.6153 117.54 22.554H117.7V12.858H122.436V36.538H117.7V33.722ZM114.595 33.082C115.492 33.082 116.228 32.8686 116.804 32.442C117.401 31.994 117.7 31.386 117.7 30.618V25.658C117.7 24.89 117.401 24.2926 116.804 23.866C116.228 23.418 115.492 23.194 114.595 23.194C113.7 23.194 112.953 23.514 112.356 24.154C111.78 24.7726 111.492 25.6153 111.492 26.682V29.594C111.492 30.6606 111.78 31.514 112.356 32.154C112.953 32.7726 113.7 33.082 114.595 33.082ZM129.232 17.946C128.272 17.946 127.568 17.7326 127.12 17.306C126.694 16.858 126.48 16.2926 126.48 15.61V14.906C126.48 14.2233 126.694 13.6686 127.12 13.242C127.568 12.794 128.272 12.57 129.232 12.57C130.192 12.57 130.886 12.794 131.312 13.242C131.76 13.6686 131.984 14.2233 131.984 14.906V15.61C131.984 16.2926 131.76 16.858 131.312 17.306C130.886 17.7326 130.192 17.946 129.232 17.946ZM126.864 19.738H131.6V36.538H126.864V19.738Z" fill="#021526"/>
<path d="M145.488 36.922C143.973 36.922 142.608 36.6873 141.392 36.218C140.176 35.7273 139.141 35.0126 138.288 34.074C137.435 33.114 136.773 31.93 136.304 30.522C135.835 29.0926 135.6 27.4286 135.6 25.53C135.6 23.6526 135.835 21.9886 136.304 20.538C136.773 19.066 137.435 17.8393 138.288 16.858C139.141 15.8553 140.176 15.098 141.392 14.586C142.608 14.074 143.973 13.818 145.488 13.818C147.557 13.818 149.264 14.2446 150.608 15.098C151.952 15.93 153.029 17.2526 153.84 19.066L149.648 21.242C149.349 20.3033 148.88 19.5566 148.24 19.002C147.621 18.426 146.704 18.138 145.488 18.138C144.059 18.138 142.907 18.6073 142.032 19.546C141.179 20.4633 140.752 21.8073 140.752 23.578V27.162C140.752 28.9326 141.179 30.2873 142.032 31.226C142.907 32.1433 144.059 32.602 145.488 32.602C146.683 32.602 147.632 32.282 148.336 31.642C149.061 30.9806 149.595 30.1913 149.936 29.274L153.904 31.578C153.072 33.2846 151.973 34.6073 150.608 35.546C149.264 36.4633 147.557 36.922 145.488 36.922ZM169.468 36.538C168.614 36.538 167.9 36.2713 167.324 35.738C166.769 35.2046 166.417 34.49 166.268 33.594H166.076C165.82 34.682 165.254 35.514 164.38 36.09C163.505 36.6446 162.428 36.922 161.148 36.922C159.462 36.922 158.172 36.474 157.276 35.578C156.38 34.682 155.932 33.498 155.932 32.026C155.932 30.2553 156.572 28.9433 157.852 28.09C159.153 27.2153 160.913 26.778 163.132 26.778H165.788V25.722C165.788 24.9113 165.574 24.2713 165.148 23.802C164.721 23.3113 164.006 23.066 163.004 23.066C162.065 23.066 161.318 23.2686 160.764 23.674C160.209 24.0793 159.75 24.538 159.388 25.05L156.572 22.554C157.254 21.5513 158.108 20.7726 159.132 20.218C160.177 19.642 161.585 19.354 163.356 19.354C165.745 19.354 167.537 19.8766 168.732 20.922C169.926 21.9673 170.524 23.4926 170.524 25.498V32.858H172.092V36.538H169.468ZM162.908 33.626C163.697 33.626 164.369 33.4553 164.924 33.114C165.5 32.7726 165.788 32.218 165.788 31.45V29.466H163.484C161.628 29.466 160.7 30.0953 160.7 31.354V31.834C160.7 32.4526 160.892 32.9113 161.276 33.21C161.66 33.4873 162.204 33.626 162.908 33.626ZM175.271 36.538V19.738H180.007V23.386H180.167C180.252 22.9166 180.401 22.4686 180.615 22.042C180.828 21.594 181.105 21.1993 181.447 20.858C181.809 20.5166 182.236 20.25 182.727 20.058C183.217 19.8446 183.793 19.738 184.455 19.738H185.287V24.154H184.103C182.716 24.154 181.681 24.3353 180.999 24.698C180.337 25.0606 180.007 25.7326 180.007 26.714V36.538H175.271ZM195.06 36.922C193.78 36.922 192.638 36.7193 191.636 36.314C190.633 35.8873 189.78 35.3006 189.076 34.554C188.393 33.786 187.87 32.858 187.508 31.77C187.166 30.682 186.996 29.466 186.996 28.122C186.996 26.7993 187.166 25.6046 187.508 24.538C187.849 23.45 188.35 22.522 189.012 21.754C189.694 20.986 190.526 20.3993 191.508 19.994C192.489 19.5673 193.609 19.354 194.868 19.354C196.254 19.354 197.438 19.5886 198.42 20.058C199.422 20.5273 200.233 21.1566 200.852 21.946C201.492 22.7353 201.95 23.6526 202.228 24.698C202.526 25.722 202.676 26.7993 202.676 27.93V29.338H191.892V29.594C191.892 30.7033 192.19 31.5886 192.788 32.25C193.385 32.89 194.324 33.21 195.604 33.21C196.585 33.21 197.385 33.018 198.004 32.634C198.622 32.2286 199.198 31.7486 199.732 31.194L202.1 34.138C201.353 35.0126 200.372 35.6953 199.156 36.186C197.961 36.6766 196.596 36.922 195.06 36.922ZM194.964 22.842C194.004 22.842 193.246 23.162 192.692 23.802C192.158 24.4206 191.892 25.2526 191.892 26.298V26.554H197.78V26.266C197.78 25.242 197.545 24.4206 197.076 23.802C196.628 23.162 195.924 22.842 194.964 22.842Z" fill="#0360D9"/>
<path d="M0 31.3828C0 28.9087 0.459162 26.4587 1.35133 24.173C2.2435 21.8872 3.55112 19.8102 5.19962 18.0608C6.84811 16.3113 8.80508 14.9235 10.9589 13.9767C13.1128 13.03 15.4213 12.5426 17.7526 12.5426V31.3828H0Z" fill="#00A4F4"/>
<path d="M0 31.3826C0 34.0023 0.459162 36.5963 1.35133 39.0166C2.2435 41.4368 3.55112 43.6359 5.19962 45.4883C6.84811 47.3406 8.80508 48.81 10.9589 49.8126C13.1128 50.8151 15.4213 51.331 17.7526 51.331V31.3826H0Z" fill="#2CBEFF"/>
<path d="M35.5046 31.3826C35.5046 34.0023 35.0457 36.5963 34.1537 39.0166C33.2615 41.4368 31.9539 43.6359 30.3051 45.4883C28.6566 47.3406 26.6995 48.81 24.5456 49.8126C22.3918 50.8151 20.0832 51.331 17.752 51.331V31.3826H35.5046Z" fill="#75D4FF"/>
<path d="M46.9929 14.759C46.9929 22.7159 40.9146 29.1662 33.4172 29.1662H19.8418V14.759C19.8418 6.80215 25.9198 0.351807 33.4172 0.351807C40.9146 0.351807 46.9929 6.80215 46.9929 14.759Z" fill="#0360D9"/>
</svg>
