<svg width="253" height="65" viewBox="0 0 253 65" fill="none" xmlns="http://www.w3.org/2000/svg">
<path d="M103.803 22.344H103.707L102.075 25.608L97.7233 33.512L93.4673 25.64L91.7713 22.12H91.6753V37H87.0993V14.664H92.2513L97.7233 25.128H97.7873L103.195 14.664H108.379V37H103.803V22.344ZM120.07 37.384C118.79 37.384 117.649 37.1813 116.646 36.776C115.643 36.3493 114.79 35.7627 114.086 35.016C113.403 34.248 112.881 33.32 112.518 32.232C112.177 31.144 112.006 29.928 112.006 28.584C112.006 27.2613 112.177 26.0667 112.518 25C112.859 23.912 113.361 22.984 114.022 22.216C114.705 21.448 115.537 20.8613 116.518 20.456C117.499 20.0293 118.619 19.816 119.878 19.816C121.265 19.816 122.449 20.0507 123.43 20.52C124.433 20.9893 125.243 21.6187 125.862 22.408C126.502 23.1973 126.961 24.1147 127.238 25.16C127.537 26.184 127.686 27.2613 127.686 28.392V29.8H116.902V30.056C116.902 31.1653 117.201 32.0507 117.798 32.712C118.395 33.352 119.334 33.672 120.614 33.672C121.595 33.672 122.395 33.48 123.014 33.096C123.633 32.6907 124.209 32.2107 124.742 31.656L127.11 34.6C126.363 35.4747 125.382 36.1573 124.166 36.648C122.971 37.1387 121.606 37.384 120.07 37.384ZM119.974 23.304C119.014 23.304 118.257 23.624 117.702 24.264C117.169 24.8827 116.902 25.7147 116.902 26.76V27.016H122.79V26.728C122.79 25.704 122.555 24.8827 122.086 24.264C121.638 23.624 120.934 23.304 119.974 23.304ZM141.335 34.184H141.175C141.047 34.632 140.844 35.0587 140.567 35.464C140.289 35.848 139.948 36.1893 139.543 36.488C139.159 36.7653 138.711 36.9787 138.199 37.128C137.708 37.2987 137.196 37.384 136.663 37.384C134.529 37.384 132.919 36.6373 131.831 35.144C130.743 33.6293 130.199 31.4427 130.199 28.584C130.199 25.7253 130.743 23.5493 131.831 22.056C132.919 20.5627 134.529 19.816 136.663 19.816C137.751 19.816 138.711 20.1147 139.543 20.712C140.396 21.3093 140.94 22.0773 141.175 23.016H141.335V13.32H146.071V37H141.335V34.184ZM138.231 33.544C139.127 33.544 139.863 33.3307 140.439 32.904C141.036 32.456 141.335 31.848 141.335 31.08V26.12C141.335 25.352 141.036 24.7547 140.439 24.328C139.863 23.88 139.127 23.656 138.231 23.656C137.335 23.656 136.588 23.976 135.991 24.616C135.415 25.2347 135.127 26.0773 135.127 27.144V30.056C135.127 31.1227 135.415 31.976 135.991 32.616C136.588 33.2347 137.335 33.544 138.231 33.544ZM152.868 18.408C151.908 18.408 151.204 18.1947 150.756 17.768C150.329 17.32 150.116 16.7547 150.116 16.072V15.368C150.116 14.6853 150.329 14.1307 150.756 13.704C151.204 13.256 151.908 13.032 152.868 13.032C153.828 13.032 154.521 13.256 154.948 13.704C155.396 14.1307 155.62 14.6853 155.62 15.368V16.072C155.62 16.7547 155.396 17.32 154.948 17.768C154.521 18.1947 153.828 18.408 152.868 18.408ZM150.5 20.2H155.236V37H150.5V20.2Z" fill="#021526"/>
<path d="M168.977 37.384C167.463 37.384 166.097 37.1493 164.881 36.68C163.665 36.1893 162.631 35.4747 161.777 34.536C160.924 33.576 160.263 32.392 159.793 30.984C159.324 29.5547 159.089 27.8907 159.089 25.992C159.089 24.1147 159.324 22.4507 159.793 21C160.263 19.528 160.924 18.3013 161.777 17.32C162.631 16.3173 163.665 15.56 164.881 15.048C166.097 14.536 167.463 14.28 168.977 14.28C171.047 14.28 172.753 14.7067 174.097 15.56C175.441 16.392 176.519 17.7147 177.329 19.528L173.137 21.704C172.839 20.7653 172.369 20.0187 171.729 19.464C171.111 18.888 170.193 18.6 168.977 18.6C167.548 18.6 166.396 19.0693 165.521 20.008C164.668 20.9253 164.241 22.2693 164.241 24.04V27.624C164.241 29.3947 164.668 30.7493 165.521 31.688C166.396 32.6053 167.548 33.064 168.977 33.064C170.172 33.064 171.121 32.744 171.825 32.104C172.551 31.4427 173.084 30.6533 173.425 29.736L177.393 32.04C176.561 33.7467 175.463 35.0693 174.097 36.008C172.753 36.9253 171.047 37.384 168.977 37.384ZM192.957 37C192.104 37 191.389 36.7333 190.813 36.2C190.258 35.6667 189.906 34.952 189.757 34.056H189.565C189.309 35.144 188.744 35.976 187.869 36.552C186.994 37.1067 185.917 37.384 184.637 37.384C182.952 37.384 181.661 36.936 180.765 36.04C179.869 35.144 179.421 33.96 179.421 32.488C179.421 30.7173 180.061 29.4053 181.341 28.552C182.642 27.6773 184.402 27.24 186.621 27.24H189.277V26.184C189.277 25.3733 189.064 24.7333 188.637 24.264C188.21 23.7733 187.496 23.528 186.493 23.528C185.554 23.528 184.808 23.7307 184.253 24.136C183.698 24.5413 183.24 25 182.877 25.512L180.061 23.016C180.744 22.0133 181.597 21.2347 182.621 20.68C183.666 20.104 185.074 19.816 186.845 19.816C189.234 19.816 191.026 20.3387 192.221 21.384C193.416 22.4293 194.013 23.9547 194.013 25.96V33.32H195.581V37H192.957ZM186.397 34.088C187.186 34.088 187.858 33.9173 188.413 33.576C188.989 33.2347 189.277 32.68 189.277 31.912V29.928H186.973C185.117 29.928 184.189 30.5573 184.189 31.816V32.296C184.189 32.9147 184.381 33.3733 184.765 33.672C185.149 33.9493 185.693 34.088 186.397 34.088ZM198.76 37V20.2H203.496V23.848H203.656C203.741 23.3787 203.89 22.9307 204.104 22.504C204.317 22.056 204.594 21.6613 204.936 21.32C205.298 20.9787 205.725 20.712 206.216 20.52C206.706 20.3067 207.282 20.2 207.944 20.2H208.776V24.616H207.592C206.205 24.616 205.17 24.7973 204.488 25.16C203.826 25.5227 203.496 26.1947 203.496 27.176V37H198.76ZM218.549 37.384C217.269 37.384 216.128 37.1813 215.125 36.776C214.122 36.3493 213.269 35.7627 212.565 35.016C211.882 34.248 211.36 33.32 210.997 32.232C210.656 31.144 210.485 29.928 210.485 28.584C210.485 27.2613 210.656 26.0667 210.997 25C211.338 23.912 211.84 22.984 212.501 22.216C213.184 21.448 214.016 20.8613 214.997 20.456C215.978 20.0293 217.098 19.816 218.357 19.816C219.744 19.816 220.928 20.0507 221.909 20.52C222.912 20.9893 223.722 21.6187 224.341 22.408C224.981 23.1973 225.44 24.1147 225.717 25.16C226.016 26.184 226.165 27.2613 226.165 28.392V29.8H215.381V30.056C215.381 31.1653 215.68 32.0507 216.277 32.712C216.874 33.352 217.813 33.672 219.093 33.672C220.074 33.672 220.874 33.48 221.493 33.096C222.112 32.6907 222.688 32.2107 223.221 31.656L225.589 34.6C224.842 35.4747 223.861 36.1573 222.645 36.648C221.45 37.1387 220.085 37.384 218.549 37.384ZM218.453 23.304C217.493 23.304 216.736 23.624 216.181 24.264C215.648 24.8827 215.381 25.7147 215.381 26.76V27.016H221.269V26.728C221.269 25.704 221.034 24.8827 220.565 24.264C220.117 23.624 219.413 23.304 218.453 23.304Z" fill="#0360D9"/>
<path d="M0 39.5652C0 36.4107 0.621782 33.2869 1.82992 30.3726C3.03808 27.458 4.80881 24.8099 7.04116 22.5793C9.27348 20.3486 11.9235 18.5792 14.8402 17.372C17.7569 16.1649 20.883 15.5435 24.04 15.5435V39.5652H0Z" fill="#00A4F4"/>
<path d="M0 39.5652C0 42.9054 0.621782 46.2128 1.82992 49.2988C3.03808 52.3846 4.80881 55.1885 7.04116 57.5503C9.27348 59.9122 11.9235 61.7857 14.8402 63.0639C17.7569 64.3422 20.883 65 24.04 65V39.5652H0Z" fill="#2CBEFF"/>
<path d="M48.0796 39.5652C48.0796 42.9054 47.4582 46.2128 46.2502 49.2988C45.042 52.3846 43.2714 55.1885 41.0386 57.5503C38.8062 59.9122 36.1561 61.7857 33.2393 63.0639C30.3227 64.3422 27.1965 65 24.0396 65V39.5652H48.0796Z" fill="#75D4FF"/>
<path d="M63.6357 18.3696C63.6357 28.5148 55.4048 36.7391 45.252 36.7391H26.8687V18.3696C26.8687 8.22437 35.0993 0 45.252 0C55.4048 0 63.6357 8.22437 63.6357 18.3696Z" fill="#0360D9"/>
</svg>
